/* XPM */
static char *resized_sprite[] = {
/* columns rows colors chars-per-pixel */
"40 40 6 1",
"  c #A7B9C2",
". c #7E3333",
"X c #AE5D52",
"o c #A0825B",
"O c #D3C183",
"+ c #EEECD3",
"    XXXXXXXXXXXXXXOOOOXXXXXXXXXXXXXX    ",
"    XXXXXXXXXXXXXXOOOOXXXXXXXXXXXXXX    ",
"    XXXXXXXXXXXXXXOOOOXXXXXXXXXXXXXX    ",
"    XXXXXXXXX+++XXOOOOXX+++XXXXXXXXX    ",
"    XXXXXXXXX+++XXOOOOXX+++XXXXXXXXX    ",
"    XXXXXXXXX+++XXOOOOXX+++XXXXXXXXX    ",
"    XXXXXXXXXOOO++ooooOO+++XXXXXXXXX    ",
"    XXXXXXXXXOOO++ooooOO+++XXXXXXXXX    ",
"    OOOOOOOoooooOOooOO++oooOOOOOOOOO    ",
"    OOOOOOOoooooOOooOO++oooOOOOOOOOO    ",
"    OOOOOOOoooooOOooOO++oooOOOOOOOOO    ",
"    XXXXXXXXXXXXXXooooXXXXXXXXXXXXXX    ",
"    XXXXXXXXXXXXXXooooXXXXXXXXXXXXXX    ",
"    XXXXXXXXXXXXXXooooXXXXXXXXXXXXXX    ",
"    XXXXXXXXXXXXXXOOOOXXXXXXXXXXXXXX    ",
"    XXXXXXXXXXXXXXOOOOXXXXXXXXXXXXXX    ",
"    XXXXXXXXXXXXXXOOOOXXXXXXXXXXXXXX    ",
"    XXXXXXXXXXXXXXOOOOXXXXXXXXXXXXXX    ",
"    XXXXXXXXXXXXXXOOOOXXXXXXXXXXXXXX    ",
"    XXXXXXXXXXXXXXOOOOXXXXXXXXXXXXXX    ",
"    ..............oooo..............    ",
"    ..............oooo..............    ",
"    ..............oooo..............    ",
"    ..............oooo..............    ",
"    ..............oooo..............    ",
"    ..............oooo..............    ",
"    ..............oooo..............    ",
"    ..............oooo..............    ",
"    ..............oooo..............    ",
"    ..............oooo..............    ",
"    ..............oooo..............    ",
"    ..............oooo..............    ",
"    ..............oooo..............    ",
"    ..............oooo..............    ",
"    ..............oooo..............    ",
"    ..............oooo..............    ",
"    ..............oooo..............    ",
"    ..............oooo..............    ",
"    ..............oooo..............    ",
"    ..............oooo..............    ",
"    ..............oooo..............    ",
"    ..............oooo..............    ",
};
