/* XPM */
static char *sprite[] = {
"40 40 31 1",
"A c #bcc2b5",
"B c #75b51e",
"C c #63981a",
"D c #81aa4b",
"E c #7ea44a",
"F c #A7B9C2",
"G c #689a25",
"H c #000000",
"I c #9fb582",
"J c #78a140",
"K c #71af1d",
"L c #6ba61c",
"M c #669e1b",
"N c #aab897",
"O c #fff200",
"P c #426611",
"Q c #b2bba5",
"R c #86a859",
"S c #62971a",
"T c #8bb94d",
"U c #63991a",
"V c #517d15",
"W c #a7b693",
"X c #7cb62c",
"Y c #70ac1d",
"Z c #70ad1d",
"a c #6a9b29",
"b c #67a01b",
"c c #213409",
"d c #b6ad00",
"e c #669e1a",
"FFFFFFFFFFFFFFFFFFFFFFFFFFFFFFFFFFFFFFFF",
"FFFFFFFFFFFFFFFFFFFFFFFFFFFFFFFFFFFFFFFF",
"FFFFFFFFFFFFFFFFFFRRQFFFFFFFFFFFFFFFFFFF",
"FFFFFFFFFFFFFFFFFFSSSFFFFFFFFFFFFFFFFFFF",
"FFFFFFFFFFFFFFFFFFSSWFFFFFFFFFFFFFFFFFFF",
"FFFFFFFFFFFFFFFFBBBSYBFFFFFFFFFFFFFFFFFF",
"FFFFFFFFFFFFFFBBBBBBBBBFFFFFFFFFFFFFFFFF",
"FFFFFFFFFFFFFFBBBBBbBBBFFFFFFFFFFFFFFFFF",
"FFFFFFFFFFFFFFBBHBbBcHBFFFFFFFFFFFFFFFFF",
"FFFFFFFFFFFFFFBBOOBHOBBFFFFFFFFFFFFFFFFF",
"FFFFFFFFFFFFFFBBOHBBdbBFFFFFFFFFFFFFFFFF",
"FFFFFFFFFFFFFFBbBBPPBBLBFFFFFFFFFFFFFFFF",
"FFFFFFFFFFFFFBPBBBBBBBeBBFFFFFFFFFFFFFFF",
"FFFFFFFFFFFFFBPBBBBBBBeBBFFFFFFFFFFFFFFF",
"FFFFFFFFFFFFFBBPBBPBBBVBBFFFFFFFFFFFFFFF",
"FFFFFFFFFFFFFFFBBBBBBBTFFFFFFFFFFFFFFFFF",
"FFFFFFFFFFFFFFFFFFBBFFFFFFFFFFFFFFFFFFFF",
"FFFFFFFFFFFFFFFSFSBBWFEFFFFFFFFFFFFFFFFF",
"FFFFFFFFFFFFFFFFSSSSSSFFFFFFFFFFFFFFFFFF",
"FFFFFFFFFFFFFFJSUSbSCMGJFFFFFFFFFFFFFFFF",
"FFFFFFFFFFFFFFSSSSbSSSSFFFFFFFFFFFFFFFFF",
"FFFFFFFFFFFFFBBSBBSBBSbBBFFFFFFFFFFFFFFF",
"FFFFFFFFFFFFBBaFBBBBBbNXBAFFFFFFFFFFFFFF",
"FFFFFFFFFFFBBFFbBBBBBBDFFBBFFFFFFFFFFFFF",
"FFFFFFFFFFBBFFFbBBBBBBDFFFBFFFFFFFFFFFFF",
"FFFFFFFFFFBBFFFbBBBBBBDFFBBFFFFFFFFFFFFF",
"FFFFFFFFFFFFBBbBBBBBBBKFBBFFFFFFFFFFFFFF",
"FFFFFFFFFFFFFBbBBBBBBBKBBFFFFFFFFFFFFFFF",
"FFFFFFFFFFFFFBbBBBBBBBKBBBFFFFFFFFFFFFFF",
"FFFFFFFFFFFFBBbBBBBBBBKFBBFFFFFFFFFFFFFF",
"FFFFFFFFFFFFFFbBBBBBBBKFFFFFFFFFFFFFFFFF",
"FFFFFFFFFFFFFFbBBBBBBBKFFFFFFFFFFFFFFFFF",
"FFFFFFFFFFFFFFFbBBBBBBDFFFFFFFFFFFFFFFFF",
"FFFFFFFFFFFFFFFFZZIIZZFFFFFFFFFFFFFFFFFF",
"FFFFFFFFFFFFFFFFBBFFBBFFFFFFFFFFFFFFFFFF",
"FFFFFFFFFFFFFFFFBBFFBBFFFFFFFFFFFFFFFFFF",
"FFFFFFFFFFFFFFFFBBFFBBFFFFFFFFFFFFFFFFFF",
"FFFFFFFFFFFFFFFFBBFFBBFFFFFFFFFFFFFFFFFF",
"FFFFFFFFFFBBBBBBBBFFBBBBBBBFFFFFFFFFFFFF",
"FFFFFFFFFFFFFFFFFFFFFFFFFFFFFFFFFFFFFFFF",
"FFFFFFFFFFFFFFFFFFFFFFFFFFFFFFFFFFFFFFFF",
};