/* XPM */
static char *_resized_sprite_40x42_v2[] = {
/* columns rows colors chars-per-pixel */
"40 40 10 1 ",
"  c #A7B9C2",
". c #000000",
"X c #54333b",
"o c #7e3333",
"O c #ae5d52",
"+ c #a0825b",
"@ c #6989a5",
"# c #d3c183",
"$ c #a7b9c2",
"% c #cad7de",
"          ...............               ",
"          ...............               ",
"          ...............               ",
"        ..oooooooOOOOOOOO..             ",
"        ..oooooooOOOOOOOO..             ",
"     ...XXXXooooooooooOOOOO...          ",
"     ...XXXXooooooooooOOOOO...          ",
"     ...XXXXooooooooooOOOOO...          ",
"  ...$$$..XXXXX...............          ",
"  ...$$$..XXXXX...............          ",
"  ...$$$..XXXXX...............          ",
"  ........XX...@@$$$%%$$$%%%%%..        ",
"  ........XX...@@$$$%%$$$%%%%%..        ",
"          ..@@@$$...............        ",
"          ..@@@$$...............        ",
"          ..@@@$$...............        ",
"          ..@@@..+++#####..###..        ",
"          ..@@@..+++#####..###..        ",
"        .......%%.....###.....%%...     ",
"        .......%%.....###.....%%...     ",
"        .......%%.....###.....%%...     ",
"     ...XX..$$$%%%%%$$.....$$$%%.....   ",
"     ...XX..$$$%%%%%$$.....$$$%%.....   ",
"     ...XX..$$$%%%%%$$.....$$$%%.....   ",
"  ...XXXoooo...$$$$$%%%%%%%%%%%%...oo...",
"  ...XXXoooo...$$$$$%%%%%%%%%%%%...oo...",
"  ...XXXoo..XXX.....$$$$$%%%%%..XXXoo...",
"  ...XXXoo..XXX.....$$$$$%%%%%..XXXoo...",
"  ...XXXoo..XXX.....$$$$$%%%%%..XXXoo...",
"  ........XXoooooXXX..........oo........",
"  ........XXoooooXXX..........oo........",
"  ...+++##..oooooooooooooooooooo...##...",
"  ...+++##..oooooooooooooooooooo...##...",
"  ...+++##..oooooooooooooooooooo...##...",
"  ..........XXXoo..........XXXoo........",
"  ..........XXXoo..........XXXoo........",
"  ..........XXXoo..........XXXoo........",
"        ..XXXXX..          ...XX...     ",
"        ..XXXXX..          ...XX...     ",
"        .......               .....     ",
"        .......               .....     ",
"        .......               .....     "
};

