/* XPM */
static char *resized_sprite_2[] = {
/* columns rows colors chars-per-pixel */
"40 40 10 1",
"  c #A7B9C2",
". c #000000",
"X c #54333B",
"o c #7E3333",
"O c #AE5D52",
"+ c #A0825B",
"@ c #6989A5",
"# c #D3C183",
"$ c #A7B9C2",
"% c #CAD7DE",
"               ...............          ",
"               ...............          ",
"               ...............          ",
"            ...OOOOOOOoooooooo..        ",
"            ...OOOOOOOoooooooo..        ",
"          ..OOOOOooooooooooXXXXX...     ",
"          ..OOOOOooooooooooXXXXX...     ",
"          ..OOOOOooooooooooXXXXX...     ",
"          ...............XXXXX..$$$..   ",
"          ...............XXXXX..$$$..   ",
"          ...............XXXXX..$$$..   ",
"        ..%%%%%$$%%%$$@@@..XXX.......   ",
"        ..%%%%%$$%%%$$@@@..XXX.......   ",
"        ..............$$$@@...          ",
"        ..............$$$@@...          ",
"        ..............$$$@@...          ",
"        ..##...#####++...@@...          ",
"        ..##...#####++...@@...          ",
"     ...%%.....##.....%%%.......        ",
"     ...%%.....##.....%%%.......        ",
"     ...%%.....##.....%%%.......        ",
"  ......%%$$.....$$$%%%%%$$...XX...     ",
"  ......%%$$.....$$$%%%%%$$...XX...     ",
"  ......%%$$.....$$$%%%%%$$...XX...     ",
"..ooo...%%%%%%%%%%%%$$$$$..oooooXXX..   ",
"..ooo...%%%%%%%%%%%%$$$$$..oooooXXX..   ",
"..oooXXX..%%%%%$$$$$.....XX...ooXXX..   ",
"..oooXXX..%%%%%$$$$$.....XX...ooXXX..   ",
"..oooXXX..%%%%%$$$$$.....XX...ooXXX..   ",
"........oo..........XXoooooXXX.......   ",
"........oo..........XXoooooXXX.......   ",
"..###...ooooooooooooooooooo...##+++..   ",
"..###...ooooooooooooooooooo...##+++..   ",
"..###...ooooooooooooooooooo...##+++..   ",
"........ooXX..........oooXX..........   ",
"........ooXX..........oooXX..........   ",
"........ooXX..........oooXX..........   ",
"     ...XX..          ...XXXXX..        ",
"     ...XX..          ...XXXXX..        ",
"     .....               .......        ",
"     .....               .......        ",
"     .....               .......        ",
};
