/* XPM */
static char *sprite_40x40[] = {
/* columns rows colors chars-per-pixel */
"40 40 9 1 ",
"  c #A7B9C2",
". c #403737",
"X c #2F4C3A",
"o c #684F42",
"O c #527345",
"+ c #A0825B",
"@ c #92A965",
"# c #CAD7DE",
"$ c #FEFEFD",
/* pixels */
"                   $$$$                 ",
"                  $$$$$$                ",
"                  $$$$$$                ",
"                  #$$$$$                ",
"                 #$$$$$$$               ",
"                ##$$$$$$$$              ",
"                ##$$$$$$$$              ",
"               ##$$$$$$$$$$             ",
"              $#$$$$$$$$$$$#            ",
"             #$$$$$$$$$$$$$$#           ",
"           ##$$$$$$$$$$$$$$$$##         ",
"          ##$$$$$$$$$$$$$$$$$$$#        ",
"          ###$$$$#$$$$$$$$$$$$$$        ",
"           ###$##$$$$$$$$$$$$$$         ",
"             #####$$$$$$$$$$##          ",
"             XX#####$$$$$$$XX           ",
"           $OXXXO#########@$$           ",
"          $##O$OXOOOOOO@@@$$$$$         ",
"        #$$$#$$$$OOO@#$O#$$$$$$$        ",
"       #$$$$$$$$$$$$#$$$$$$$$$$$$       ",
"       ##$$$$$$$$$$$$$$$$$$$$$$$$       ",
"        ###$$#$$$$$$$$$$$$#$$$$$        ",
"          #####$$#$$$$$$$$$#            ",
"           XO##########$$XO             ",
"         $OXXOXOXOXOXOOOOOO@$           ",
"        #OXXOXOX$OOOOOOOO$@O$$$         ",
"      ##$$$$XO##$$O@OOO@O#$$$$$$$       ",
"     ##$$$$$###$$$$O@O@$$$$$$$$$$$      ",
"    ###$$$$$$#$$$$$$$###$$$$$$$$$$$     ",
"   ####$$$$$$$$$$$$$$$$$$$$$$$$$$$$     ",
"  #####$$$$$$$$$$$$$$$$$$$$$$$$$$$$$    ",
"  #####$$$$$$$$$$$$$$$$$$$$$$$$$$$$$    ",
"     ####$$$$$$$$$$$$$$$$$$$$$$$$$$     ",
"         ###$$$$$$$$$$$$$$$$$#$$$       ",
"           ###$$$$$$$$$$$###            ",
"           ...o####$$$+....             ",
"          .o.oooo++o+o..o.              ",
"            oo.oo+o++..oo               ",
"             ..oo+.o..o                 ",
"               ooo...                   ",
"                ooo                     "
};
