/* XPM */
static char * santa_sleigh_resized[] = {
/* columns rows colors chars-per-pixel */
"40 40 5 1 ",
"  c #A7B9C2",
"X c #7E3333",
"+ c #006400",
"* c #FFD700",
"x c #000000",
/* pixels */
"                                        ",
"                                        ",
"                                        ",
"                                        ",
"                                        ",
"                                        ",
"                                        ",
"                           ********     ",
"                           ********     ",
"                           ********     ",
"                         XXXXXXXXXXXX   ",
"                         XXXXXXXXXXXX   ",
"                         XXXXXXXXXXXX   ",
"                         XXXXXXXXXXXX   ",
"                         XXXXXXXXXXXX   ",
"  ***XXX            XXXXXXXXXXXXXXXXX   ",
"  ***XXX            XXXXXXXXXXXXXXXXX   ",
"     XXXXX     XXXXXXXXXXXXXXXXXXXXXX   ",
"     XXXXX     XXXXXXXXXXXXXXXXXXXXXX   ",
"     XXXXX     XXXXXXXXXXXXXXXXXXXXXX   ",
"     XXXXXXXXXXXXXXXXXXXXXXXXXXXXXX     ",
"     XXXXXXXXXXXXXXXXXXXXXXXXXXXXXX     ",
"     XXXXXXXXXXXXXXXXXXXXXXXXXXXXXX     ",
"     XXXXXXXXXXXXXXXXXXXXXXXXXXXXXX     ",
"     XXXXXXXXXXXXXXXXXXXXXXXXXXXXXX     ",
"     +++++++++++++++++++++++++++        ",
"     +++++++++++++++++++++++++++        ",
"     +++++++++++++++++++++++++++        ",
"xxxxx   XXXXXXXXXXXXXXXXXXXXXX          ",
"xxxxx   XXXXXXXXXXXXXXXXXXXXXX          ",
"xx        xx               xxx          ",
"xx        xx               xxx          ",
"xx        xx               xxx          ",
"xxxxx   xxxx               xxxxx     xxx",
"xxxxx   xxxx               xxxxx     xxx",
"xxxxx   xxxx               xxxxx     xxx",
"  xxxxxxxxxxxxxxxxxxxxxxxxxxxxxxxxxxxxxx",
"  xxxxxxxxxxxxxxxxxxxxxxxxxxxxxxxxxxxxxx",
"                                        ",
"                                        ",
"                                        ",
};